<svg preserveAspectRatio="none" width="100%" height="100%" overflow="visible" style="display: block;" viewBox="0 0 134.001 19.9997" fill="none" xmlns="http://www.w3.org/2000/svg">
<g id="Group 2136140256">
<g id="Group">
<path id="Vector" d="M36.7928 19.9997V6.77567H45.9132C47.3517 6.77567 48.4739 7.19765 49.2796 8.0416C50.0861 8.88468 50.489 10.0368 50.4883 11.498C50.4883 12.9451 50.0826 14.0885 49.2711 14.9281C48.4604 15.7659 47.3255 16.1844 45.8664 16.1835H39.0548V19.9997L36.7928 19.9997ZM45.5302 8.94772H39.0569V14.0088H45.5302C46.4069 14.0088 47.0687 13.7908 47.5113 13.3575C47.956 12.9215 48.1774 12.3043 48.1774 11.4953C48.1795 9.79868 47.2971 8.94947 45.5302 8.94772Z" fill="var(--fill-0, #F4F2EA)"/>
<path id="Vector_2" d="M53.2518 19.9997V6.77567H62.5871C63.9852 6.77567 65.0414 7.153 65.7557 7.90766C66.4706 8.66407 66.8274 9.69712 66.826 11.0068C66.826 12.2649 66.4792 13.2726 65.7854 14.0298C65.0917 14.7862 64.0866 15.1828 62.7701 15.2196L67.0707 19.9997H64.0703L59.9548 15.3535H55.5159V19.9997H53.2518ZM62.2041 8.87418H55.5159V13.255H62.2041C63.7554 13.255 64.5307 12.5249 64.53 11.0646C64.53 9.60432 63.7547 8.87418 62.2041 8.87418Z" fill="var(--fill-0, #F4F2EA)"/>
<path id="Vector_3" d="M69.7108 19.9997V6.77567H71.9745V19.997H69.7108V19.9997Z" fill="var(--fill-0, #F4F2EA)"/>
<path id="Vector_4" d="M77.1956 6.77567L82.5517 17.3733L87.9546 6.77567H90.4805L83.6859 19.997H81.3452L74.5506 6.77567H77.1956Z" fill="var(--fill-0, #F4F2EA)"/>
<path id="Vector_5" d="M102.341 19.997L100.673 16.9005H92.2865L90.6331 19.997H88.1072L95.3465 6.77567H97.6724L104.956 19.997H102.341ZM93.3888 14.8598H99.5727L96.4658 9.10005L93.3888 14.8598Z" fill="var(--fill-0, #F4F2EA)"/>
<path id="Vector_6" d="M110.75 19.9997V8.94772H104.566V6.77567H119.213V8.94772H113.014V19.997H110.75V19.9997Z" fill="var(--fill-0, #F4F2EA)"/>
<path id="Vector_7" d="M121.025 19.9997V6.77567H133.88V8.83478H123.228V12.1966H132.884V14.2557H123.228V17.9379H134.001V19.997H121.025V19.9997Z" fill="var(--fill-0, #F4F2EA)"/>
</g>
<path id="Vector_8" d="M26.4207 12.3153H24.2672C25.4578 12.1509 26.5851 11.5674 27.5145 10.6344C28.6891 9.43933 29.2658 7.96066 29.2658 6.19834C29.2658 4.43601 28.6891 2.95734 27.5145 1.79121C26.3632 0.596196 24.9333 0 23.2075 0H14.6361L9.48004 14.3612L4.19207 0H0V19.903H1.49595V3.62183L7.49041 19.903H9.15021L14.9446 3.76103V19.903H18.4707V12.3153H22.5734L25.9951 19.903H29.8871L26.4207 12.3153ZM22.0307 10.4663H18.4707V1.93042H22.0307C23.931 1.93042 25.1886 3.61132 25.1886 6.19834C25.1886 8.78536 23.931 10.4663 22.0307 10.4663Z" fill="var(--fill-0, #F4F2EA)"/>
</g>
</svg>
