<svg preserveAspectRatio="none" width="100%" height="100%" overflow="visible" style="display: block;" viewBox="0 0 20.4005 19.453" fill="none" xmlns="http://www.w3.org/2000/svg">
<g id="Group">
<path id="Union" d="M10.0501 2.2262L9.6433 2.6672L10.0612 3.0527L10.4686 2.65621L10.0501 2.2262ZM18.1136 2.31214L18.5409 1.89096L18.5409 1.89093L18.1136 2.31214ZM18.2015 10.486L17.7651 10.0742L17.4072 10.4536L17.733 10.8608L18.2015 10.486ZM18.2054 10.4909L18.6327 10.912L19.007 10.5323L18.6739 10.116L18.2054 10.4909ZM10.2142 18.5983L9.78693 19.0195L10.2142 19.453L10.6415 19.0195L10.2142 18.5983ZM2.25522 10.525L1.82792 10.9462L1.82795 10.9463L2.25522 10.525ZM2.25522 2.41663L1.82794 1.9954L1.82792 1.99543L2.25522 2.41663ZM10.0501 2.2262L10.4686 2.65621C12.4896 0.689494 15.6964 0.714639 17.6863 2.73335L18.1136 2.31214L18.5409 1.89093C16.0869 -0.598588 12.1245 -0.629652 9.6317 1.7962L10.0501 2.2262ZM18.1136 2.31214L17.6863 2.73333C19.6789 4.75499 19.7046 8.01838 17.7651 10.0742L18.2015 10.486L18.6379 10.8977C21.0189 8.37395 20.9887 4.37433 18.5409 1.89096L18.1136 2.31214ZM18.2015 10.486L17.733 10.8608L17.7369 10.8657L18.2054 10.4909L18.6739 10.116L18.67 10.1112L18.2015 10.486ZM18.2054 10.4909L17.7781 10.0697L9.78689 18.1771L10.2142 18.5983L10.6415 19.0195L18.6327 10.912L18.2054 10.4909ZM10.2142 18.5983L10.6415 18.177L2.6825 10.1038L2.25522 10.525L1.82795 10.9463L9.78693 19.0195L10.2142 18.5983ZM2.25522 10.525L2.68252 10.1038C0.705826 8.09854 0.705826 4.84313 2.68252 2.83784L2.25522 2.41663L1.82792 1.99543C-0.609307 4.46791 -0.609308 8.47375 1.82792 10.9462L2.25522 10.525ZM2.25522 2.41663L2.6825 2.83786C4.59687 0.896002 7.66234 0.839634 9.6433 2.6672L10.0501 2.2262L10.457 1.78521C8.00208 -0.47961 4.19843 -0.409123 1.82794 1.9954L2.25522 2.41663Z" fill="var(--stroke-0, #3E2022)"/>
</g>
</svg>
