<svg width="248" height="40" viewBox="0 0 248 40" fill="none" xmlns="http://www.w3.org/2000/svg" role="img" aria-label="климашкина 711">
<g fill="#3E2022">
<path d="M21.1578 17.8398H24.7709C24.1067 20.7964 23.8047 22.6027 23.2311 24.7217C22.6775 26.75 21.7919 28.6471 20.9867 29.6158C20.2218 30.5542 19.3965 31.0083 18.4807 31.0083H17.9171V32.8045H18.5914C20.2017 32.8045 21.6711 31.4725 22.9795 28.8489C24.1973 26.3968 24.9018 22.6935 25.9283 17.8398H27.0052V32.8045H29.0684V16.8105H21.1679V17.8398H21.1578Z"/>
<path d="M38.2862 16.8008H36.223V33.5212L50.1321 19.4748V32.7947H52.1953V16.0742L38.2862 30.1206V16.8008Z"/>
<path d="M68.8624 27.0641L62.1193 16.0146L58.3753 32.7957H59.7642L62.1998 20.0207L68.3391 30.0913L74.267 19.6776L76.914 32.7957H79.0476L75.2936 15.9844L68.8624 27.0641Z"/>
<path d="M83.1061 32.8051H84.6359L87.5646 26.902H95.2438L98.1725 32.8051H100.477L91.7917 16.1855L83.1061 32.8051ZM88.0779 25.8727L91.3187 19.1724L94.7305 25.8727H88.0679H88.0779Z"/>
<path d="M124.578 31.7655H117.211V16.8008H115.148V31.7655H107.781V16.8008H105.717V32.8048H126.641V16.8008H124.578V31.7655Z"/>
<path d="M145.238 16.8008H143.225L136.039 23.9552V16.8008H133.975V32.8048H136.039V25.0147L143.215 32.8048H146.214L137.095 24.3891L145.238 16.8008Z"/>
<path d="M153.415 16.8008H151.352V33.5212L164.909 19.6464V32.7947H166.972V16.0742L153.415 29.9491V16.8008Z"/>
<path d="M185.67 24.0157H176.551V16.8008H174.488V32.8048H176.551V25.045H185.67V32.8048H187.733V16.8008H185.67V24.0157Z"/>
<path d="M192.969 32.8051H194.499L197.428 26.902H205.107L208.036 32.8051H210.34L201.655 16.1855L192.969 32.8051ZM197.941 25.8727L201.182 19.1724L204.594 25.8727H197.931H197.941Z"/>
<path d="M233.094 0L230.417 7.19475H216.84V9.4551H229.572L218.219 40H219.145L234.01 0H233.084H233.094Z"/>
<path d="M13.1341 16.8018H10.0342L2.2343 25.823V7.19531H0V32.8159H2.2343V26.933L3.74396 25.5303L10.8897 32.8159H14.0097L5.37439 24.0167L13.124 16.8119L13.1341 16.8018Z"/>
<path d="M233.305 11.0601L236.506 9.00157V32.8058H238.74V7.19531L233.295 9.74829V11.0601H233.305Z"/>
<path d="M242.565 9.74829V11.0601L245.766 9.00157V32.8058H248V7.19531L242.555 9.74829H242.565Z"/>
</g>
</svg>
